<svg width="79" height="66" viewBox="0 0 79 66" fill="none" xmlns="http://www.w3.org/2000/svg">
<path d="M26.8049 11.7333H26.2092C26.5369 11.7333 26.8049 11.5038 26.8049 11.2232V11.7333H49.4402V11.2232C49.4402 11.5038 49.7082 11.7333 50.0358 11.7333H49.4402V16.3246H54.8011V11.2232C54.8011 8.97217 52.6642 7.14203 50.0358 7.14203H26.2092C23.5809 7.14203 21.4439 8.97217 21.4439 11.2232V16.3246H26.8049V11.7333ZM64.3318 16.3246H11.9133C10.5954 16.3246 9.53062 17.2365 9.53062 18.3652V20.4058C9.53062 20.6864 9.79867 20.9159 10.1263 20.9159H14.6236L16.4627 54.2667C16.5818 56.4412 18.6815 58.1565 21.2205 58.1565H55.0245C57.571 58.1565 59.6633 56.4475 59.7824 54.2667L61.6215 20.9159H66.1188C66.4464 20.9159 66.7144 20.6864 66.7144 20.4058V18.3652C66.7144 17.2365 65.6497 16.3246 64.3318 16.3246ZM54.4512 53.5652H21.7939L19.992 20.9159H56.2531L54.4512 53.5652Z" fill="white"/>
</svg>
