<svg width="74" height="64" viewBox="0 0 74 64" fill="none" xmlns="http://www.w3.org/2000/svg">
<path fill-rule="evenodd" clip-rule="evenodd" d="M64.75 4H9.25C8.02337 4 6.84699 4.42143 5.97963 5.17157C5.11228 5.92172 4.625 6.93913 4.625 8V56C4.625 57.0609 5.11228 58.0783 5.97963 58.8284C6.84699 59.5786 8.02337 60 9.25 60H64.75C65.9766 60 67.153 59.5786 68.0204 58.8284C68.8877 58.0783 69.375 57.0609 69.375 56V8C69.375 6.93913 68.8877 5.92172 68.0204 5.17157C67.153 4.42143 65.9766 4 64.75 4ZM9.25 0C6.79675 0 4.44397 0.842855 2.70926 2.34315C0.974551 3.84344 0 5.87827 0 8L0 56C0 58.1217 0.974551 60.1566 2.70926 61.6569C4.44397 63.1571 6.79675 64 9.25 64H64.75C67.2033 64 69.556 63.1571 71.2907 61.6569C73.0254 60.1566 74 58.1217 74 56V8C74 5.87827 73.0254 3.84344 71.2907 2.34315C69.556 0.842855 67.2033 0 64.75 0L9.25 0Z" fill="white"/>
<path fill-rule="evenodd" clip-rule="evenodd" d="M35.3627 45.416C35.1474 45.2302 34.9765 45.0095 34.8599 44.7665C34.7434 44.5235 34.6833 44.2631 34.6833 44C34.6833 43.7369 34.7434 43.4764 34.8599 43.2335C34.9765 42.9905 35.1474 42.7698 35.3627 42.584L47.6051 32L35.3627 21.416C35.1477 21.23 34.9772 21.0093 34.8608 20.7663C34.7445 20.5234 34.6846 20.263 34.6846 20C34.6846 19.737 34.7445 19.4766 34.8608 19.2337C34.9772 18.9907 35.1477 18.7699 35.3627 18.584C35.5777 18.398 35.833 18.2505 36.1139 18.1499C36.3948 18.0493 36.6959 17.9975 37 17.9975C37.304 17.9975 37.6051 18.0493 37.8861 18.1499C38.167 18.2505 38.4222 18.398 38.6372 18.584L52.5122 30.584C52.7276 30.7698 52.8984 30.9905 53.015 31.2335C53.1316 31.4764 53.1916 31.7369 53.1916 32C53.1916 32.2631 53.1316 32.5235 53.015 32.7665C52.8984 33.0095 52.7276 33.2302 52.5122 33.416L38.6372 45.416C38.4224 45.6022 38.1672 45.75 37.8863 45.8508C37.6053 45.9517 37.3042 46.0036 37 46.0036C36.6958 46.0036 36.3946 45.9517 36.1137 45.8508C35.8327 45.75 35.5775 45.6022 35.3627 45.416Z" fill="white"/>
<path fill-rule="evenodd" clip-rule="evenodd" d="M20.8125 32C20.8125 31.4696 21.0561 30.9609 21.4898 30.5858C21.9235 30.2107 22.5117 30 23.125 30H46.25C46.8633 30 47.4515 30.2107 47.8852 30.5858C48.3189 30.9609 48.5625 31.4696 48.5625 32C48.5625 32.5304 48.3189 33.0391 47.8852 33.4142C47.4515 33.7893 46.8633 34 46.25 34H23.125C22.5117 34 21.9235 33.7893 21.4898 33.4142C21.0561 33.0391 20.8125 32.5304 20.8125 32Z" fill="white"/>
</svg>
